{"title":"Still Alice(2014)MPEG-4[DaScubaDude]","uid":14547181,"size":1011252533,"categoryP":"video","categoryS":"movies","magnet":"?xt=urn:btih:568beb1169010e39835c156d6504c11e9905ea53&amp;dn=Still+Alice%282014%29MPEG-4%5BDaScubaDude%5D&amp;tr=udp%3A%2F%2Ftracker.leechers-paradise.org%3A6969&amp;tr=udp%3A%2F%2Fzer0day.ch%3A1337&amp;tr=udp%3A%2F%2Fopen.demonii.com%3A1337&amp;tr=udp%3A%2F%2Ftracker.coppersurfer.tk%3A6969&amp;tr=udp%3A%2F%2Fexodus.desync.com%3A6969","seeders":2,"leechers":0,"uploader":"dascuba","files":1,"time":1462599545,"description":"Still Alice (2014)\r\nPG-13 | 1h 41min | Drama | 20 February 2015 (USA)\r\nA linguistics professor and her family find their bonds tested when she is diagnosed with Alzheimer's Disease.\r\nDirectors: Richard Glatzer, Wash Westmoreland\r\nWriters: Richard Glatzer (screenplay), Wash Westmoreland (screenplay) | \r\nStars: Julianne Moore, Alec Baldwin, Kristen Stewart | \r\n\r\nGeneral\r\nComplete name                            : StillAliceSTILL_ALICE_Title1.mp4\r\nFormat                                   : MPEG-4\r\nFormat profile                           : Base Media\r\nCodec ID                                 : isom (isom/iso2/avc1/mp41)\r\nFile size                                : 964 MiB\r\nDuration                                 : 1h 41mn\r\nOverall bit rate                         : 1 333 Kbps\r\nMovie name                               : STILL_ALICE\r\nWriting application                      : Lavf54.6.100\r\n\r\nVideo\r\nID                                       : 1\r\nFormat                                   : AVC\r\nFormat/Info                              : Advanced Video Codec\r\nFormat profile                           :   \r\nFormat settings, CABAC                   : No\r\nFormat settings, ReFrames                : 6 frames\r\nCodec ID                                 : avc1\r\nCodec ID/Info                            : Advanced Video Coding\r\nDuration                                 : 1h 41mn\r\nBit rate                                 : 1 198 Kbps\r\nWidth                                    : 720 pixels\r\nHeight                                   : 404 pixels\r\nDisplay aspect ratio                     : 16:9\r\nFrame rate mode                          : Constant\r\nFrame rate                               : 29.970 (30000/1001) fps\r\nColor space                              : YUV\r\nChroma subsampling                       : 4:2:0\r\nBit depth                                : 8 bits\r\nScan type                                : Progressive\r\nBits/(Pixel*Frame)                       : 0.137\r\nStream size                              : 867 MiB (90%)\r\n\r\nAudio\r\nID                                       : 2\r\nFormat                                   : AAC\r\nFormat/Info                              : Advanced Audio Codec\r\nFormat profile                           : LC\r\nCodec ID                                 : 40\r\nDuration                                 : 1h 41mn\r\nBit rate mode                            : Constant\r\nBit rate                                 : 128 Kbps\r\nChannel(s)                               : 2 channels\r\nChannel positions                        : Front: L R\r\nSampling rate                            : 44.1 KHz\r\nFrame rate                               : 43.066 fps (1024 spf)\r\nCompression mode                         : Lossy\r\nStream size                              : 92.6 MiB (10%)\r\nDefault                                  : Yes\r\nAlternate group                          : 1","torrent":{"xt":"urn:btih:568beb1169010e39835c156d6504c11e9905ea53","amp;dn":"Still+Alice%282014%29MPEG-4%5BDaScubaDude%5D","amp;tr":["udp%3A%2F%2Ftracker.leechers-paradise.org%3A6969","udp%3A%2F%2Fzer0day.ch%3A1337","udp%3A%2F%2Fopen.demonii.com%3A1337","udp%3A%2F%2Ftracker.coppersurfer.tk%3A6969","udp%3A%2F%2Fexodus.desync.com%3A6969"],"infoHash":"568beb1169010e39835c156d6504c11e9905ea53","infoHashBuffer":{"type":"Buffer","data":[86,139,235,17,105,1,14,57,131,92,21,109,101,4,193,30,153,5,234,83]},"announce":[],"urlList":[]}}